<?xml version="1.0" encoding="utf-8"?>
<!-- Generator: Adobe Illustrator 24.2.0, SVG Export Plug-In . SVG Version: 6.00 Build 0)  -->
<svg version="1.1" xmlns="http://www.w3.org/2000/svg" xmlns:xlink="http://www.w3.org/1999/xlink" x="0px" y="0px"
	 viewBox="0 0 668.4 616.9" style="enable-background:new 0 0 668.4 616.9;" xml:space="preserve">
<style type="text/css">
	.st0{display:none;}
	.st1{fill-rule:evenodd;clip-rule:evenodd;fill:#FBCB22;}
	.st2{fill:#ECA400;}
	.st3{fill-rule:evenodd;clip-rule:evenodd;fill:#ECA400;}
	.st4{fill-rule:evenodd;clip-rule:evenodd;fill:#FEEDB4;}
	.st5{fill-rule:evenodd;clip-rule:evenodd;fill:#FFFFFF;}
</style>
<g id="BG" xmlns:serif="http://www.serif.com/" class="st0">
</g>
<g id="Trophy5">
	<g transform="matrix(1,0,0,1,-9.62389,0)">
		<g transform="matrix(1.00265,0,0,1.00265,-233.156,27.8214)">
			<path class="st1" d="M395.4,568.8c1.1-30.9,100-37.4,174.4-87.2c74.8,56.2,173.3,56.4,174.4,87.2h0v18.8H395.4L395.4,568.8
				L395.4,568.8z"/>
			<g transform="matrix(0.798699,0,0,1,81.6679,203.879)">
				<path class="st2" d="M796.6,368.1H425.6c-1.6,0-3-1.1-3-2.4s1.3-2.4,3-2.4h371.1c1.6,0,3,1.1,3,2.4S798.3,368.1,796.6,368.1z"/>
			</g>
		</g>
		<g transform="matrix(1.00265,0,0,1.00265,-237.139,42.1802)">
			<path class="st3" d="M528.7,371.3c0,0,10,14.9,18.3,41.3c2.7,8.6,5.5,17.8,5.4,27.5c-0.1,9.9-3.2,18.9-5.9,27.5
				c-8.3,26.1-17.7,41.3-17.7,41.3c0,24.8,90,24.8,90,0c0,0-9.4-15.2-17.7-41.3c-2.8-8.7-5.8-17.7-5.9-27.5
				c-0.1-9.8,2.7-18.9,5.4-27.5c8.3-26.4,18.3-41.3,18.3-41.3c0-24.8-20.2-45-45-45C548.9,326.3,528.7,346.4,528.7,371.3z"/>
		</g>
		<g>
			<path class="st2" d="M138.8,554.9c-25.8,0-55.8-6.6-80-25.4c-29.5-22.9-45.2-58.7-46.5-106.2c-1.1-40.4,9.6-69.1,32-85.4
				c34.7-25.3,82.8-8.7,84.9-7.9c7.8,2.8,11.9,11.3,9.1,19.1c-2.8,7.8-11.3,11.9-19.1,9.1c-0.5-0.2-35.5-12-57.3,4
				c-13.8,10.1-20.4,30.4-19.6,60.2c1.1,38.1,12.8,66.2,34.9,83.3c26.4,20.5,62.4,21.8,85.3,16.6c8.1-1.8,16.1,3.2,17.9,11.3
				c1.8,8.1-3.2,16.1-11.3,17.9C160.3,553.7,149.9,554.9,138.8,554.9z"/>
			<g transform="matrix(-1,0,0,1,350.28,0)">
				<path class="st2" d="M-67.1,497.7c4.9-10,8.3-19.8,10.3-28.6c1.9-8.1-3.1-16.1-11.2-18c-8.1-1.9-16.1,3.1-18,11.2
					c-5.3,22.8-22.2,54.6-52.2,69.4c-25.1,12.4-55.5,10.7-90.2-4.9c-27.2-12.3-42.6-27-45.6-43.9c-4.9-26.6,21.2-53.1,21.5-53.3
					c5.8-5.8,5.9-15.3,0.1-21.2c-5.8-5.9-15.3-5.9-21.2-0.1c-1.5,1.5-37.5,37.6-29.9,79.8c4.9,27.2,26,49.5,62.9,66.1
					c43.3,19.5,82.3,21,115.8,4.5C-97.3,545-78.3,520.9-67.1,497.7z"/>
			</g>
		</g>
		<g transform="matrix(1.00265,0,0,1.00265,-233.356,42.1802)">
			<path class="st1" d="M344.3,63V2.8c0-24.8,20.1-44.9,44.9-44.9c36.1,0,72.2,0,108.3,0c13,0,24.2,0.3,46.7,0
				c0,0,126.6-1.4,205.2,0c2.2,0,9.5,0.2,17.2,3.4c5.4,2.2,10.4,5.5,14.6,9.7c8.4,8.4,13.1,19.8,13.1,31.7c0,29,0,61.3,0,61.3
				c1.6,30.4,0,74.9-16.7,124.4c-31,92.1-115.5,205-208.3,206.1C467.4,395.8,345.9,262.1,344.3,63z"/>
		</g>
		<g transform="matrix(0.908634,0,0,0.908634,37.1867,17.0308)">
			<ellipse class="st4" cx="89.1" cy="474.4" rx="62.1" ry="56.4"/>
		</g>
		<g transform="matrix(1.03609,0,0,1.03609,-14.6889,-8.2892)">
			<path class="st2" d="M514.8,499.7c-38.6,0-69.9-28.5-69.9-63.4s31.4-63.4,69.9-63.4s69.9,28.5,69.9,63.4S553.4,499.7,514.8,499.7
				z M514.8,375.7c-36.8,0-66.8,27.2-66.8,60.6s30,60.6,66.8,60.6c36.8,0,66.8-27.2,66.8-60.6S551.7,375.7,514.8,375.7z"/>
		</g>
		<g transform="matrix(1.18728,0,0,1.18728,-244.26,-99.2709)">
			<path class="st1" d="M699,350.6c0.3-0.8,1.1-1.3,1.9-1.3s1.7,0.5,1.9,1.3c2,5.6,5,13.9,6.1,17.1c0.3,0.8,1.1,1.3,1.9,1.3
				c3.7,0,13.3,0,19.8,0c0.9,0,1.7,0.5,1.9,1.3c0.3,0.8,0,1.6-0.7,2.1c-5.2,3.5-13.1,8.6-16,10.6c-0.7,0.5-1,1.3-0.7,2.1
				c1.1,3.2,4.1,11.5,6.1,17.1c0.3,0.8,0,1.6-0.7,2.1c-0.7,0.5-1.7,0.5-2.4,0c-5.2-3.5-13.1-8.6-16-10.6c-0.7-0.5-1.7-0.5-2.4,0
				c-3,2-10.8,7.1-16,10.6c-0.7,0.5-1.7,0.5-2.4,0c-0.7-0.5-1-1.3-0.7-2.1c2-5.6,5-13.9,6.1-17.1c0.3-0.8,0-1.6-0.7-2.1
				c-3-2-10.8-7.1-16-10.6c-0.7-0.5-1-1.3-0.7-2.1c0.3-0.8,1.1-1.3,1.9-1.3c6.5,0,16.2,0,19.8,0c0.9,0,1.7-0.5,1.9-1.3
				C694,364.5,697,356.2,699,350.6z"/>
		</g>
		<g transform="matrix(1.00265,0,0,1.00265,-233.156,27.8214)">
		</g>
	</g>
	<path class="st1" d="M256.8,65.2c-3.9,9.2-10.6,22.8-21.3,37.4c-34.9,47.9-74.1,53.7-81.6,85.9c-2.6,10.9-2.2,27.8,13.6,51.9"/>
	<g>
		<path class="st5" d="M289.2-2.8c1.8,12.5,2.7,30.3-3.6,48.2c-7.7,21.8-20.4,27.5-34.2,42.8c-31.9,35.2-13.1,58.5-47.2,111.1
			c-20.9,32.2-44.7,49.4-54.1,56c-17,12-29.2,16.5-29.3,16.2c-0.2-0.4,22.3-7.5,25.2-24.1c2.3-13.4-10.2-20.9-13.7-35.5
			c-7.3-30.6,33.9-58.4,57.7-93.4c17.5-25.8,34.7-68.7,31.2-143.6"/>
	</g>
	<path class="st1" d="M1135.3,75.4"/>
	<path class="st1" d="M534.8,236.8c-49-4.4-80.2-20.4-99.4-33.9c-42.3-29.7-51.8-64.7-97.8-85c-25.9-11.4-50.5-12.5-66.3-11.9"/>
	<path class="st5" d="M1003.5,163.8"/>
	<path class="st5" d="M548.5,202.8c-23.6-0.1-57.5-1.9-97.5-10.6c-43.1-9.3-90.3-19.6-96-45.5c-5.6-25.3,31.9-49.7,23.3-64.3
		c-7.8-13.2-41.9,0.8-49.3-13.4c-4.6-8.8,6.4-18.4,8.6-44.6c0.9-10.6,0-19.4-0.9-25"/>
</g>
<g id="Trophy4" class="st0">
</g>
<g id="Trophy3" class="st0">
</g>
<g id="Trophy2" class="st0">
</g>
<g id="Trophy1">
</g>
</svg>
